<?xml version="1.0" standalone="no"?><!DOCTYPE svg PUBLIC "-//W3C//DTD SVG 1.1//EN" "http://www.w3.org/Graphics/SVG/1.1/DTD/svg11.dtd"><svg t="1734593941153" class="icon" viewBox="0 0 1024 1024" version="1.1" xmlns="http://www.w3.org/2000/svg" p-id="1452" xmlns:xlink="http://www.w3.org/1999/xlink" width="200" height="200"><path d="M512 0C227.555556 0 0 227.555556 0 512s227.555556 512 512 512 512-227.555556 512-512-227.555556-512-512-512z m0 910.222222c-216.177778 0-398.222222-182.044444-398.222222-398.222222s182.044444-398.222222 398.222222-398.222222 398.222222 182.044444 398.222222 398.222222-182.044444 398.222222-398.222222 398.222222z" fill="#1296db" p-id="1453"></path><path d="M432.355556 284.444444c-17.066667-11.377778-34.133333 0-34.133334 22.755556v415.288889c0 17.066667 17.066667 28.444444 34.133334 17.066667s273.066667-193.422222 295.822222-204.8c17.066667-11.377778 17.066667-34.133333 0-45.511112-17.066667-11.377778-278.755556-193.422222-295.822222-204.8z" fill="#1296db" p-id="1454"></path></svg>